<svg width="632" height="108" viewBox="0 0 632 108" fill="none" xmlns="http://www.w3.org/2000/svg">
<path d="M140.368 23.416C140.283 20.856 140.581 18.488 141.264 16.312C141.947 14.0933 142.971 12.1733 144.336 10.552C145.701 8.888 147.408 7.608 149.456 6.712C151.547 5.77333 153.936 5.304 156.624 5.304C158.672 5.304 160.613 5.624 162.448 6.264C164.325 6.904 165.968 7.82133 167.376 9.016C168.784 10.2107 169.893 11.6827 170.704 13.432C171.557 15.1813 171.984 17.144 171.984 19.32C171.984 21.5813 171.621 23.5227 170.896 25.144C170.171 26.7653 169.211 28.216 168.016 29.496C166.821 30.7333 165.456 31.864 163.92 32.888C162.427 33.912 160.912 34.936 159.376 35.96C157.84 36.9413 156.347 38.008 154.896 39.16C153.445 40.312 152.165 41.656 151.056 43.192H172.24V51H139.344C139.344 48.3973 139.707 46.136 140.432 44.216C141.2 42.296 142.224 40.5893 143.504 39.096C144.784 37.56 146.277 36.152 147.984 34.872C149.733 33.592 151.568 32.2907 153.488 30.968C154.469 30.2853 155.515 29.6027 156.624 28.92C157.733 28.1947 158.736 27.4053 159.632 26.552C160.571 25.6987 161.339 24.7387 161.936 23.672C162.576 22.6053 162.896 21.3893 162.896 20.024C162.896 17.848 162.256 16.1627 160.976 14.968C159.739 13.7307 158.139 13.112 156.176 13.112C154.853 13.112 153.723 13.432 152.784 14.072C151.888 14.6693 151.163 15.48 150.608 16.504C150.053 17.4853 149.648 18.5947 149.392 19.832C149.179 21.0267 149.072 22.2213 149.072 23.416H140.368ZM198.651 51H189.562V21.944H178.299V15.096C179.877 15.1387 181.392 15.032 182.843 14.776C184.336 14.4773 185.659 13.9867 186.811 13.304C188.005 12.5787 189.008 11.64 189.819 10.488C190.629 9.336 191.163 7.90666 191.419 6.2H198.651V51ZM211.493 23.416C211.408 20.856 211.706 18.488 212.389 16.312C213.072 14.0933 214.096 12.1733 215.461 10.552C216.826 8.888 218.533 7.608 220.581 6.712C222.672 5.77333 225.061 5.304 227.749 5.304C229.797 5.304 231.738 5.624 233.573 6.264C235.45 6.904 237.093 7.82133 238.501 9.016C239.909 10.2107 241.018 11.6827 241.829 13.432C242.682 15.1813 243.109 17.144 243.109 19.32C243.109 21.5813 242.746 23.5227 242.021 25.144C241.296 26.7653 240.336 28.216 239.141 29.496C237.946 30.7333 236.581 31.864 235.045 32.888C233.552 33.912 232.037 34.936 230.501 35.96C228.965 36.9413 227.472 38.008 226.021 39.16C224.57 40.312 223.29 41.656 222.181 43.192H243.365V51H210.469C210.469 48.3973 210.832 46.136 211.557 44.216C212.325 42.296 213.349 40.5893 214.629 39.096C215.909 37.56 217.402 36.152 219.109 34.872C220.858 33.592 222.693 32.2907 224.613 30.968C225.594 30.2853 226.64 29.6027 227.749 28.92C228.858 28.1947 229.861 27.4053 230.757 26.552C231.696 25.6987 232.464 24.7387 233.061 23.672C233.701 22.6053 234.021 21.3893 234.021 20.024C234.021 17.848 233.381 16.1627 232.101 14.968C230.864 13.7307 229.264 13.112 227.301 13.112C225.978 13.112 224.848 13.432 223.909 14.072C223.013 14.6693 222.288 15.48 221.733 16.504C221.178 17.4853 220.773 18.5947 220.517 19.832C220.304 21.0267 220.197 22.2213 220.197 23.416H211.493ZM153.936 87.336H165.776L160.016 70.568H159.888L153.936 87.336ZM154.896 59.304H165.2L182.288 105H171.856L168.4 94.824H151.312L147.728 105H137.616L154.896 59.304ZM207.797 83.56C207.199 79.7627 204.959 77.864 201.077 77.864C199.626 77.864 198.41 78.2053 197.429 78.888C196.447 79.528 195.637 80.3813 194.997 81.448C194.399 82.472 193.973 83.624 193.717 84.904C193.461 86.1413 193.333 87.3787 193.333 88.616C193.333 89.8107 193.461 91.0267 193.717 92.264C193.973 93.5013 194.378 94.632 194.933 95.656C195.53 96.6373 196.319 97.448 197.301 98.088C198.282 98.728 199.477 99.048 200.885 99.048C203.061 99.048 204.725 98.4507 205.877 97.256C207.071 96.0187 207.818 94.376 208.117 92.328H216.885C216.287 96.7227 214.581 100.072 211.765 102.376C208.949 104.68 205.343 105.832 200.949 105.832C198.474 105.832 196.191 105.427 194.101 104.616C192.053 103.763 190.303 102.589 188.853 101.096C187.402 99.6027 186.271 97.832 185.461 95.784C184.65 93.6933 184.245 91.4107 184.245 88.936C184.245 86.376 184.607 84.008 185.333 81.832C186.101 79.6133 187.21 77.7147 188.661 76.136C190.111 74.5147 191.882 73.256 193.973 72.36C196.063 71.464 198.453 71.016 201.141 71.016C203.103 71.016 204.981 71.272 206.773 71.784C208.607 72.296 210.229 73.0853 211.637 74.152C213.087 75.176 214.261 76.4773 215.157 78.056C216.053 79.592 216.565 81.4267 216.693 83.56H207.797ZM244.547 83.56C243.949 79.7627 241.709 77.864 237.827 77.864C236.376 77.864 235.16 78.2053 234.179 78.888C233.197 79.528 232.387 80.3813 231.747 81.448C231.149 82.472 230.723 83.624 230.467 84.904C230.211 86.1413 230.083 87.3787 230.083 88.616C230.083 89.8107 230.211 91.0267 230.467 92.264C230.723 93.5013 231.128 94.632 231.683 95.656C232.28 96.6373 233.069 97.448 234.051 98.088C235.032 98.728 236.227 99.048 237.635 99.048C239.811 99.048 241.475 98.4507 242.627 97.256C243.821 96.0187 244.568 94.376 244.867 92.328H253.635C253.037 96.7227 251.331 100.072 248.515 102.376C245.699 104.68 242.093 105.832 237.699 105.832C235.224 105.832 232.941 105.427 230.851 104.616C228.803 103.763 227.053 102.589 225.603 101.096C224.152 99.6027 223.021 97.832 222.211 95.784C221.4 93.6933 220.995 91.4107 220.995 88.936C220.995 86.376 221.357 84.008 222.083 81.832C222.851 79.6133 223.96 77.7147 225.411 76.136C226.861 74.5147 228.632 73.256 230.723 72.36C232.813 71.464 235.203 71.016 237.891 71.016C239.853 71.016 241.731 71.272 243.523 71.784C245.357 72.296 246.979 73.0853 248.387 74.152C249.837 75.176 251.011 76.4773 251.907 78.056C252.803 79.592 253.315 81.4267 253.443 83.56H244.547Z" fill="#C1272D"/>
<path d="M281.041 84.904C280.614 82.6 279.846 80.8507 278.737 79.656C277.67 78.4613 276.027 77.864 273.809 77.864C272.358 77.864 271.142 78.12 270.161 78.632C269.222 79.1013 268.454 79.6987 267.857 80.424C267.302 81.1493 266.897 81.9173 266.641 82.728C266.427 83.5387 266.299 84.264 266.257 84.904H281.041ZM266.257 90.664C266.385 93.608 267.131 95.7413 268.497 97.064C269.862 98.3867 271.825 99.048 274.385 99.048C276.219 99.048 277.798 98.6 279.121 97.704C280.443 96.7653 281.254 95.784 281.553 94.76H289.553C288.273 98.728 286.31 101.565 283.665 103.272C281.019 104.979 277.819 105.832 274.065 105.832C271.462 105.832 269.115 105.427 267.025 104.616C264.934 103.763 263.163 102.568 261.713 101.032C260.262 99.496 259.131 97.6613 258.321 95.528C257.553 93.3947 257.169 91.048 257.169 88.488C257.169 86.0133 257.574 83.7093 258.385 81.576C259.195 79.4427 260.347 77.608 261.841 76.072C263.334 74.4933 265.105 73.256 267.153 72.36C269.243 71.464 271.547 71.016 274.065 71.016C276.881 71.016 279.334 71.5707 281.425 72.68C283.515 73.7467 285.222 75.1973 286.545 77.032C287.91 78.8667 288.891 80.9573 289.489 83.304C290.086 85.6507 290.299 88.104 290.129 90.664H266.257ZM295.775 59.304H304.863V105H295.775V59.304ZM334.291 84.904C333.864 82.6 333.096 80.8507 331.987 79.656C330.92 78.4613 329.277 77.864 327.059 77.864C325.608 77.864 324.392 78.12 323.411 78.632C322.472 79.1013 321.704 79.6987 321.107 80.424C320.552 81.1493 320.147 81.9173 319.891 82.728C319.677 83.5387 319.549 84.264 319.507 84.904H334.291ZM319.507 90.664C319.635 93.608 320.381 95.7413 321.747 97.064C323.112 98.3867 325.075 99.048 327.635 99.048C329.469 99.048 331.048 98.6 332.371 97.704C333.693 96.7653 334.504 95.784 334.803 94.76H342.803C341.523 98.728 339.56 101.565 336.915 103.272C334.269 104.979 331.069 105.832 327.315 105.832C324.712 105.832 322.365 105.427 320.275 104.616C318.184 103.763 316.413 102.568 314.963 101.032C313.512 99.496 312.381 97.6613 311.571 95.528C310.803 93.3947 310.419 91.048 310.419 88.488C310.419 86.0133 310.824 83.7093 311.635 81.576C312.445 79.4427 313.597 77.608 315.091 76.072C316.584 74.4933 318.355 73.256 320.403 72.36C322.493 71.464 324.797 71.016 327.315 71.016C330.131 71.016 332.584 71.5707 334.675 72.68C336.765 73.7467 338.472 75.1973 339.795 77.032C341.16 78.8667 342.141 80.9573 342.739 83.304C343.336 85.6507 343.549 88.104 343.379 90.664H319.507ZM348.769 71.912H357.409V78.056H357.537C357.963 77.032 358.539 76.0933 359.265 75.24C359.99 74.344 360.822 73.5973 361.76 73C362.699 72.36 363.702 71.8693 364.769 71.528C365.835 71.1867 366.945 71.016 368.097 71.016C368.694 71.016 369.355 71.1227 370.081 71.336V79.784C369.654 79.6987 369.142 79.6347 368.545 79.592C367.947 79.5067 367.371 79.464 366.817 79.464C365.153 79.464 363.745 79.7413 362.593 80.296C361.441 80.8507 360.502 81.6187 359.777 82.6C359.094 83.5387 358.603 84.648 358.305 85.928C358.006 87.208 357.857 88.5947 357.857 90.088V105H348.769V71.912ZM373.26 82.088C373.388 79.9547 373.921 78.184 374.86 76.776C375.798 75.368 376.993 74.2373 378.444 73.384C379.894 72.5307 381.516 71.9333 383.308 71.592C385.142 71.208 386.977 71.016 388.812 71.016C390.476 71.016 392.161 71.144 393.868 71.4C395.574 71.6133 397.132 72.0613 398.54 72.744C399.948 73.4267 401.1 74.3867 401.996 75.624C402.892 76.8187 403.34 78.4187 403.34 80.424V97.64C403.34 99.1333 403.425 100.563 403.596 101.928C403.766 103.293 404.065 104.317 404.492 105H395.276C395.105 104.488 394.956 103.976 394.828 103.464C394.742 102.909 394.678 102.355 394.636 101.8C393.185 103.293 391.478 104.339 389.516 104.936C387.553 105.533 385.548 105.832 383.5 105.832C381.921 105.832 380.449 105.64 379.084 105.256C377.718 104.872 376.524 104.275 375.5 103.464C374.476 102.653 373.665 101.629 373.068 100.392C372.513 99.1547 372.236 97.6827 372.236 95.976C372.236 94.0987 372.556 92.5627 373.196 91.368C373.878 90.1307 374.732 89.1493 375.756 88.424C376.822 87.6987 378.017 87.1653 379.34 86.824C380.705 86.44 382.07 86.1413 383.436 85.928C384.801 85.7147 386.145 85.544 387.468 85.416C388.79 85.288 389.964 85.096 390.988 84.84C392.012 84.584 392.822 84.2213 393.42 83.752C394.017 83.24 394.294 82.5147 394.252 81.576C394.252 80.5947 394.081 79.8267 393.74 79.272C393.441 78.6747 393.014 78.2267 392.46 77.928C391.948 77.5867 391.329 77.3733 390.604 77.288C389.921 77.16 389.174 77.096 388.364 77.096C386.572 77.096 385.164 77.48 384.14 78.248C383.116 79.016 382.518 80.296 382.348 82.088H373.26ZM394.252 88.808C393.868 89.1493 393.377 89.4267 392.78 89.64C392.225 89.8107 391.606 89.96 390.924 90.088C390.284 90.216 389.601 90.3227 388.876 90.408C388.15 90.4933 387.425 90.6 386.7 90.728C386.017 90.856 385.334 91.0267 384.652 91.24C384.012 91.4533 383.436 91.752 382.924 92.136C382.454 92.4773 382.07 92.9253 381.772 93.48C381.473 94.0347 381.324 94.7387 381.324 95.592C381.324 96.4027 381.473 97.0853 381.772 97.64C382.07 98.1947 382.476 98.6427 382.988 98.984C383.5 99.2827 384.097 99.496 384.78 99.624C385.462 99.752 386.166 99.816 386.892 99.816C388.684 99.816 390.07 99.5173 391.052 98.92C392.033 98.3227 392.758 97.6187 393.228 96.808C393.697 95.9547 393.974 95.1013 394.06 94.248C394.188 93.3947 394.252 92.712 394.252 92.2V88.808ZM421.914 71.912H428.57V77.992H421.914V94.376C421.914 95.912 422.17 96.936 422.682 97.448C423.194 97.96 424.218 98.216 425.753 98.216C426.266 98.216 426.756 98.1947 427.226 98.152C427.695 98.1093 428.143 98.0453 428.57 97.96V105C427.802 105.128 426.948 105.213 426.01 105.256C425.071 105.299 424.154 105.32 423.258 105.32C421.85 105.32 420.506 105.213 419.226 105C417.988 104.829 416.879 104.467 415.898 103.912C414.959 103.357 414.212 102.568 413.658 101.544C413.103 100.52 412.826 99.176 412.826 97.512V77.992H407.322V71.912H412.826V61.992H421.914V71.912ZM442.238 66.792H433.15V59.304H442.238V66.792ZM433.15 71.912H442.238V105H433.15V71.912ZM457.458 88.488C457.458 89.8107 457.586 91.112 457.842 92.392C458.098 93.6293 458.524 94.76 459.122 95.784C459.762 96.7653 460.594 97.5547 461.618 98.152C462.642 98.7493 463.922 99.048 465.458 99.048C466.994 99.048 468.274 98.7493 469.298 98.152C470.364 97.5547 471.196 96.7653 471.794 95.784C472.434 94.76 472.882 93.6293 473.138 92.392C473.394 91.112 473.522 89.8107 473.522 88.488C473.522 87.1653 473.394 85.864 473.138 84.584C472.882 83.304 472.434 82.1733 471.794 81.192C471.196 80.2107 470.364 79.4213 469.298 78.824C468.274 78.184 466.994 77.864 465.458 77.864C463.922 77.864 462.642 78.184 461.618 78.824C460.594 79.4213 459.762 80.2107 459.122 81.192C458.524 82.1733 458.098 83.304 457.842 84.584C457.586 85.864 457.458 87.1653 457.458 88.488ZM448.37 88.488C448.37 85.8427 448.775 83.4533 449.586 81.32C450.396 79.144 451.548 77.3093 453.042 75.816C454.535 74.28 456.327 73.1067 458.418 72.296C460.508 71.4427 462.855 71.016 465.458 71.016C468.06 71.016 470.407 71.4427 472.498 72.296C474.631 73.1067 476.444 74.28 477.938 75.816C479.431 77.3093 480.583 79.144 481.394 81.32C482.204 83.4533 482.61 85.8427 482.61 88.488C482.61 91.1333 482.204 93.5227 481.394 95.656C480.583 97.7893 479.431 99.624 477.938 101.16C476.444 102.653 474.631 103.805 472.498 104.616C470.407 105.427 468.06 105.832 465.458 105.832C462.855 105.832 460.508 105.427 458.418 104.616C456.327 103.805 454.535 102.653 453.042 101.16C451.548 99.624 450.396 97.7893 449.586 95.656C448.775 93.5227 448.37 91.1333 448.37 88.488ZM488.519 71.912H497.159V76.52H497.351C498.503 74.6 499.996 73.2133 501.831 72.36C503.665 71.464 505.543 71.016 507.463 71.016C509.895 71.016 511.879 71.3573 513.415 72.04C514.993 72.68 516.231 73.5973 517.127 74.792C518.023 75.944 518.641 77.3733 518.983 79.08C519.367 80.744 519.559 82.6 519.559 84.648V105H510.471V86.312C510.471 83.5813 510.044 81.5547 509.191 80.232C508.337 78.8667 506.823 78.184 504.647 78.184C502.172 78.184 500.38 78.9307 499.271 80.424C498.161 81.8747 497.607 84.2853 497.607 87.656V105H488.519V71.912ZM535.8 66.792H526.712V59.304H535.8V66.792ZM526.712 71.912H535.8V105H526.712V71.912ZM549.996 94.248C549.996 95.2293 550.188 96.0827 550.572 96.808C550.999 97.4907 551.532 98.0667 552.172 98.536C552.812 98.9627 553.537 99.2827 554.348 99.496C555.201 99.7093 556.076 99.816 556.972 99.816C557.612 99.816 558.273 99.752 558.956 99.624C559.681 99.4533 560.321 99.2187 560.876 98.92C561.473 98.5787 561.964 98.152 562.348 97.64C562.732 97.0853 562.924 96.4027 562.924 95.592C562.924 94.2267 562.007 93.2027 560.172 92.52C558.38 91.8373 555.863 91.1547 552.62 90.472C551.297 90.1733 549.996 89.832 548.716 89.448C547.479 89.0213 546.369 88.488 545.388 87.848C544.407 87.1653 543.617 86.3333 543.02 85.352C542.423 84.328 542.124 83.0907 542.124 81.64C542.124 79.5067 542.529 77.7573 543.34 76.392C544.193 75.0267 545.303 73.96 546.668 73.192C548.033 72.3813 549.569 71.8267 551.276 71.528C552.983 71.1867 554.732 71.016 556.524 71.016C558.316 71.016 560.044 71.1867 561.708 71.528C563.415 71.8693 564.929 72.4453 566.252 73.256C567.575 74.0667 568.663 75.1547 569.516 76.52C570.412 77.8427 570.945 79.528 571.116 81.576H562.476C562.348 79.8267 561.687 78.6533 560.492 78.056C559.297 77.416 557.889 77.096 556.268 77.096C555.756 77.096 555.201 77.1387 554.604 77.224C554.007 77.2667 553.452 77.3947 552.94 77.608C552.471 77.8213 552.065 78.1413 551.724 78.568C551.383 78.952 551.212 79.4853 551.212 80.168C551.212 80.9787 551.511 81.64 552.108 82.152C552.705 82.664 553.473 83.0907 554.412 83.432C555.393 83.7307 556.503 84.008 557.74 84.264C558.977 84.52 560.236 84.7973 561.516 85.096C562.839 85.3947 564.119 85.7573 565.356 86.184C566.636 86.6107 567.767 87.1867 568.748 87.912C569.729 88.5947 570.519 89.4693 571.116 90.536C571.713 91.56 572.012 92.84 572.012 94.376C572.012 96.552 571.564 98.3867 570.668 99.88C569.815 101.331 568.684 102.504 567.276 103.4C565.868 104.296 564.247 104.915 562.412 105.256C560.62 105.64 558.785 105.832 556.908 105.832C554.988 105.832 553.111 105.64 551.276 105.256C549.441 104.872 547.799 104.232 546.348 103.336C544.94 102.44 543.767 101.267 542.828 99.816C541.932 98.3227 541.441 96.4667 541.356 94.248H549.996ZM577.587 71.912H586.163V76.392H586.291C587.486 74.6853 588.915 73.3627 590.579 72.424C592.286 71.4853 594.227 71.016 596.403 71.016C598.494 71.016 600.392 71.4213 602.099 72.232C603.848 73.0427 605.171 74.472 606.067 76.52C607.048 75.0693 608.371 73.7893 610.035 72.68C611.742 71.5707 613.747 71.016 616.051 71.016C617.8 71.016 619.422 71.2293 620.915 71.656C622.408 72.0827 623.688 72.7653 624.755 73.704C625.822 74.6427 626.654 75.88 627.251 77.416C627.848 78.9093 628.147 80.7227 628.147 82.856V105H619.059V86.248C619.059 85.1387 619.016 84.0933 618.931 83.112C618.846 82.1307 618.611 81.2773 618.227 80.552C617.843 79.8267 617.267 79.2507 616.499 78.824C615.774 78.3973 614.771 78.184 613.491 78.184C612.211 78.184 611.166 78.44 610.355 78.952C609.587 79.4213 608.968 80.0613 608.499 80.872C608.072 81.64 607.774 82.536 607.603 83.56C607.475 84.5413 607.411 85.544 607.411 86.568V105H598.323V86.44C598.323 85.4587 598.302 84.4987 598.259 83.56C598.216 82.5787 598.024 81.6827 597.683 80.872C597.384 80.0613 596.851 79.4213 596.083 78.952C595.358 78.44 594.27 78.184 592.819 78.184C592.392 78.184 591.816 78.2907 591.091 78.504C590.408 78.6747 589.726 79.0373 589.043 79.592C588.403 80.104 587.848 80.872 587.379 81.896C586.91 82.8773 586.675 84.1787 586.675 85.8V105H577.587V71.912Z" fill="#C9C2C2"/>
<g clip-path="url(#clip0_1_7)">
<rect y="2" width="103" height="103" fill="#C1272D"/>
<path d="M37 16L68.5185 112L-14 52.669H88L5.48148 112L37 16Z" stroke="#006233" stroke-width="6.26"/>
</g>
<defs>
<clipPath id="clip0_1_7">
<rect width="103" height="103" fill="white" transform="translate(0 2)"/>
</clipPath>
</defs>
</svg>
